<svg width="18" height="14" viewBox="0 0 18 14" fill="none" xmlns="http://www.w3.org/2000/svg">
<path d="M1 6.25002C0.585786 6.25002 0.25 6.58581 0.25 7.00002C0.25 7.41424 0.585786 7.75002 1 7.75002H10.25V13C10.25 13.3034 10.4327 13.5768 10.713 13.6929C10.9932 13.809 11.3158 13.7449 11.5303 13.5304L17.5303 7.53035C17.671 7.3897 17.75 7.19893 17.75 7.00002C17.75 6.80111 17.671 6.61034 17.5303 6.46969L11.5303 0.469692C11.3158 0.255193 10.9932 0.191026 10.713 0.307112C10.4327 0.423197 10.25 0.696675 10.25 1.00002V6.25002H1Z" fill="black"/>
</svg>
