<svg width="29" height="29" viewBox="0 0 29 29" fill="none" xmlns="http://www.w3.org/2000/svg">
<g clip-path="url(#clip0_204_23)">
<path d="M28.227 14.8225C28.227 13.8709 28.1499 12.914 27.9853 11.9778H14.78V17.3689H22.342C22.0283 19.1077 21.02 20.6458 19.5436 21.6232V25.1213H24.0551C26.7044 22.6829 28.227 19.082 28.227 14.8225Z" fill="#4285F4"/>
<path d="M14.78 28.501C18.5559 28.501 21.7402 27.2612 24.0602 25.1213L19.5487 21.6232C18.2935 22.4771 16.6731 22.9607 14.7852 22.9607C11.1328 22.9607 8.03596 20.4966 6.92481 17.1837H2.26929V20.7898C4.64592 25.5174 9.48663 28.501 14.78 28.501V28.501Z" fill="#34A853"/>
<path d="M6.91966 17.1837C6.33322 15.4449 6.33322 13.5621 6.91966 11.8234V8.21729H2.26928C0.283612 12.1732 0.283612 16.8339 2.26928 20.7898L6.91966 17.1837V17.1837Z" fill="#FBBC04"/>
<path d="M14.78 6.04127C16.776 6.01041 18.7051 6.76146 20.1506 8.14012L24.1477 4.14305C21.6167 1.76642 18.2575 0.45979 14.78 0.500943C9.48663 0.500943 4.64592 3.48459 2.26929 8.21728L6.91966 11.8234C8.02567 8.50536 11.1276 6.04127 14.78 6.04127V6.04127Z" fill="#EA4335"/>
</g>
<defs>
<clipPath id="clip0_204_23">
<rect width="28" height="28" fill="white" transform="translate(0.5 0.5)"/>
</clipPath>
</defs>
</svg>
